<?xml version="1.0" encoding="UTF-8"?>
<svg version="1.1" viewBox="0 0 500 500" xml:space="preserve" xmlns="http://www.w3.org/2000/svg">
<g transform="matrix(2.5 0 0 2.5 177.88 372.04)">
<path transform="translate(-63.43 -144.07)" d="m17.914 148.91zm4.743 6.033c1.854 2.175 3.8098 4.261 5.861 6.251 6.914 6.805 15.159 12.525 24.004 16.851 3.259 1.526 6.265 3.107 9.787 4.468 0.88 0.338 1.779 0.7 2.724 1.026 0.953 0.302 1.941 0.604 2.974 0.903 1.027 0.321 2.122 0.549 3.267 0.786 1.146 0.23 2.336 0.493 3.614 0.624-6.3399-1.3365-12.519-3.3445-18.434-5.99-5.9514-2.6847-11.606-5.9833-16.873-9.842-10.548-7.727-19.57-17.648-26.16-28.989-0.272-0.339-0.685-0.985-1.18-1.808l-0.796-1.348-0.803-1.551c-0.534-1.076-1.149-2.168-1.62-3.226-0.42234-0.92536-0.86444-1.8416-1.326-2.748 2.048 5.101 4.412 9.563 7.059 13.806 1.2193 1.9459 2.5098 3.8462 3.869 5.697-0.192-0.259-0.392-0.511-0.583-0.771 1.4565 2.0063 2.991 3.9548 4.6 5.841l0.016 0.02zm-4.618-5.862-0.125-0.17 0.125 0.17zm-16.704-43.036-0.483-3.875c0.256 2.365 0.553 5.008 1.096 7.654l-0.327-1.879c-0.1207-0.62925-0.21611-1.2631-0.286-1.9zm84.477 79.533c6.652 0.673 13.628 0.472 20.461-0.609 6.837-1.077 13.524-2.987 19.741-5.449-11.45 4.503-23.602 6.506-35.49 6.171-1.591-0.025-3.159 0-4.712-0.113z" fill="#fff" stroke-linecap="round" vector-effect="non-scaling-stroke"/>
</g>
<g transform="matrix(2.5 0 0 2.5 296.68 335.36)">
<path transform="translate(-110.87 -129.42)" d="m46.426 171.97-0.259-0.165c0.087 0.055 0.172 0.111 0.259 0.165zm-0.259-0.165zm-2.514-1.667zm12.424 7.149c5.4813 2.5504 11.222 4.5004 17.123 5.816-9.688-2.21-18.805-6.109-26.774-11.133 3.06 1.947 6.277 3.749 9.651 5.317zm120.92-70.19c0.098-1.58 0.296-3.238 0.346-4.027 0.594-5.071 0.77-9.401 0.745-13.745-0.11-0.783-0.425-2.25-0.55-3.918-0.153-1.672-0.378-3.309-0.568-4.924-0.289-1.601-0.538-3.186-0.854-4.74 2.275 11.617 2.237 23.279 0.144 34.282 0.23014-0.97984 0.47583-1.956 0.737-2.928z" fill="#fff" stroke-linecap="round" vector-effect="non-scaling-stroke"/>
</g>
<g transform="matrix(2.5 0 0 2.5 251.95 248.01)">
<path transform="translate(-93.01 -94.54)" d="m0.887 83.482c0.848-6.9 2.653-13.626 4.37-18.107l-0.695 3.28c0.429-0.961 1.122-3.194 2.067-5.557l0.682-1.802 0.753-1.747c0.5-1.131 0.92-2.203 1.363-3.025-0.303 0.771-0.595 1.602-0.947 2.436-0.345 0.837-0.732 1.687-1.101 2.542l1.514-3.409c-1.5276 3.8268-2.8426 7.7351-3.939 11.707-1.133 4.352-2.029 8.926-2.511 13.032-0.14 1.024-0.189 2.024-0.28 2.978-0.067 0.954-0.183 1.864-0.192 2.724-0.042 1.719-0.1 3.224-0.071 4.428 0.105 2.409 0.25 3.61 0.459 2.939 0.411-1.333 0.403-8.188 1.837-16.767 0.767-4.276 1.868-8.966 3.362-13.561 1.483-4.599 3.427-9.058 5.44-12.992l-0.592 1.292-0.545 1.331-1.116 2.691-1.024 2.78-0.521 1.402c-0.153 0.476-0.308 0.954-0.461 1.434-1.32 3.807-2.307 7.816-3.167 11.857l-0.559 3.052c-0.205 1.014-0.292 2.046-0.444 3.067-0.318 2.041-0.434 4.097-0.611 6.129-0.199 4.074-0.239 8.098 0.13 11.946-0.015-0.914-0.03-1.726-0.017-2.512l0.115-2.355c0.048-0.809 0.039-1.667 0.115-2.65 0.07-0.983 0.134-2.091 0.19-3.402 0.391-6.608 1.572-13.15 3.408-19.481 1.75-6.358 3.814-11.957 6.889-17.03l0.801-1.526c0.542-1.024 0.993-2.034 1.566-3.064 0.653-1.13 1.278-1.976 1.784-2.751 0.521-0.767 0.963-1.441 1.469-2.095l3.682-5.082c0.075-9e-3 -0.022 0.185-0.2 0.473 0.60708-0.86512 1.2611-1.6964 1.959-2.49 0.755-0.875 1.488-1.803 2.109-2.569 0.146-7e-3 0.288-0.011 0.623-0.251 8.65-9.197 19.295-16.692 31.291-21.417l2.667-1.039 2.7-0.899 1.343-0.448 1.36-0.38 2.71-0.753c1.55-0.373 3.12-0.751 4.721-1.091l2.437-0.426c0.819-0.141 1.642-0.3 2.484-0.378 1.674-0.201 3.134-0.625 3.921-0.729 4.369-0.249 8.73-0.199 13.849 0.216 0.397 7e-3 1.015 0.043 1.732 0.082 0.717 0.041 1.537 0.061 2.332 0.134 0.932 0.21 1.927 0.418 2.971 0.621 6.369 0.988 12.527 2.754 18.386 5.103l-7e-3 -0.028 2.244 0.894 2.29 1.058c1.571 0.684 3.11 1.559 4.7 2.383 0.798 0.407 1.554 0.904 2.338 1.354 0.77 0.474 1.576 0.894 2.32 1.412 1.508 1.002 3.037 1.961 4.446 3.032 2.2719 1.6394 4.4739 3.3736 6.6 5.198 0.046 0.042 0.094 0.081 0.14 0.122l0.042 0.038 1.457 1.322 2.789 2.783c0.462 0.467 0.89 0.967 1.337 1.449-0.216-0.35-0.208-0.491-0.2-0.63-0.689-0.66-1.504-1.441-2.309-2.21 1.343 1.222 2.515 2.327 3.477 3.229 0.371 0.474 0.776 0.94 1.16 1.449l1.186 1.566 1.261 1.629 1.255 1.752c2.226 2.838 4.191 5.874 6.057 8.97 0.864 1.588 1.817 3.131 2.586 4.774l1.213 2.436 1.092 2.497c0.314 0.533 0.192 0.022 0.231-0.068 1.225 2.962 2.21 6.042 3.102 9.146 1.7051 5.6095 2.8468 11.375 3.408 17.211 0.225 1.378 0.321 2.772 0.52 4.153l-0.123 2.924c-1e-3 1.103 0.057 2.206 0.01 3.311l-0.128 3.326c-0.016 0.75-0.124 1.569-0.187 2.459-0.084 0.888-0.128 1.846-0.256 2.856l-0.412 3.192c-0.132 1.119-0.387 2.269-0.583 3.471-0.97605 5.2782-2.4191 10.459-4.312 15.482-0.242 0.826-0.427 1.486-0.592 1.855-0.627 1.501-1.296 2.954-1.942 4.385-0.723 1.394-1.386 2.788-2.127 4.108-2.2916 4.3456-4.951 8.487-7.949 12.379-0.336 0.439-0.649 0.885-0.987 1.297l-0.998 1.206c-0.66 0.779-1.25 1.558-1.876 2.234-1.251 1.352-2.301 2.606-3.286 3.549-1.128 1.178-1.027 1.233-0.246 0.665 0.54815-0.40495 1.0844-0.8258 1.608-1.262l2.122-1.914c0.776-0.677 1.519-1.441 2.235-2.161 0.708-0.725 1.416-1.386 1.962-1.984 1.101-1.191 1.824-1.926 1.67-1.599-1.777 3.345-5.013 7.471-9.743 12.035-2.413 2.227-5.128 4.647-8.339 6.98-1.566 1.221-3.307 2.338-5.082 3.558-1.834 1.123-3.708 2.353-5.757 3.445-4.484 2.442 3.365-1.475 3.577-1.512-0.75699 0.5962-1.5509 1.144-2.377 1.64-1.478 0.786-2.943 1.597-4.474 2.273-0.895 0.411-1.774 0.855-2.679 1.239l-2.729 1.122 1.444-0.568c2.952-1.173 5.711-2.555 8.202-3.922-0.936 0.566-1.96 1.221-3.082 1.812-1.203 0.622-2.448 1.302-3.697 1.909l-3.625 1.686c12.968-4.711 24.885-12.507 34.319-22.67 4.723-5.066 8.935-10.631 12.369-16.651 3.4553-6.0078 6.2349-12.38 8.288-18.999-3.154 9.93-8.071 19.052-13.981 26.765 10.744-14.507 17.15-32.293 17.999-50.636-1e-3 1.011-0.101 2.018-0.168 3.025-0.083 1.007-0.123 2.018-0.241 3.022-0.257 2.005-0.441 4.021-0.827 6.009-0.624 4-1.636 7.931-2.782 11.815 2.262-7.021 3.613-14.424 4.145-21.869 0.554-7.451 0.092-14.947-1.057-22.211 1.974 9.622 2.301 20.524 0.619 31.298 1.182-6.949 1.482-14.112 1.028-21.214-0.102-2.713-0.422-5.407-0.685-7.901-0.377-2.476-0.662-4.762-1.027-6.611 1.445 6.826 2.015 12.648 2.293 18.136-0.267-11.977-2.748-24.112-7.62-35.511 2.659 6.191 4.842 12.851 6.175 19.698 1.34 6.84 1.897 13.838 1.58 20.57-0.015-0.788 0.018-1.575-0.028-2.366l-0.107-2.391c0.287 10.85-1.384 21.604-4.696 31.717-1.662 5.056-3.715 9.969-6.2 14.644-2.48 4.6679-5.3432 9.1218-8.56 13.316 3.673-4.29 7.551-10.354 10.646-17.015 3.081-6.675 5.368-13.894 6.941-20.199-2.314 11.322-6.907 22.494-13.571 32.471-6.646 9.985-15.351 18.764-25.423 25.502-10.06 6.759-21.474 11.437-33.187 13.748-5.816 1.155-11.728 1.7607-17.657 1.809-5.8213 0.031031-11.633-0.47613-17.361-1.515l3.005 0.571c1.002 0.19 2.018 0.295 3.026 0.445 2.016 0.324 4.055 0.446 6.087 0.633 4.073 0.229 8.168 0.306 12.25-5e-3 4.089-0.217 8.152-0.827 12.196-1.572 2.006-0.456 4.036-0.829 6.017-1.414 0.994-0.278 2-0.521 2.987-0.83l2.955-0.958c-1.492 0.462-3.062 1.074-4.739 1.523l-2.101 0.618c4.4091-1.1756 8.7244-2.6785 12.91-4.496 1.9147-0.83541 3.7995-1.7376 5.651-2.705-3.469 1.8401-7.047 3.4672-10.714 4.872-6.9925 2.6096-14.259 4.4152-21.66 5.382-1.11 0.176-2.122 0.231-3.029 0.326l-2.428 0.24c-1.429 0.113-2.484 0.164-3.222 0.245-1.477 0.147-1.687 0.284-1.099 0.397 0.587 0.113 1.971 0.203 3.673 0.251 1.697-0.01 3.71-0.101 5.541-0.268 18.397-1.887 35.288-9.107 48.824-19.916 13.545-10.811 23.919-25.172 29.701-41.467 0.363-0.946 0.642-1.922 0.944-2.89 0.293-0.971 0.617-1.932 0.882-2.912 0.491-1.97 1.072-3.917 1.448-5.917l0.619-2.985 0.487-3.012 0.241-1.507 0.172-1.517 0.342-3.034c0.698-8.114 0.422-16.315-0.812-24.363-0.66-4.554-1.82-9.961-3.315-14.777l-1.15-3.484c-0.4-1.107-0.825-2.151-1.203-3.133l-0.557-1.415-0.571-1.271-0.981-2.124c-3.134-6.359-7.072-12.424-11.682-18.065-4.605-5.643-9.896-10.868-15.861-15.418l-2.244-1.703-2.327-1.608-1.166-0.806-1.203-0.756-2.417-1.508c-3.295-1.904-6.67-3.739-10.228-5.261-3.521-1.598-7.206-2.895-10.957-4.055-1.895-0.52-3.781-1.1-5.724-1.499-0.968-0.209-1.928-0.463-2.907-0.638l-2.944-0.521c-7.04-1.239-14.363-1.534-21.679-0.984-7.312 0.565-14.655 1.953-21.696 4.349l-2.635 0.913c-0.881 0.297-1.73 0.682-2.597 1.019-0.858 0.359-1.735 0.673-2.577 1.069l-2.532 1.173c-0.852 0.376-1.675 0.808-2.496 1.245l-2.469 1.297-2.402 1.412c-0.8 0.472-1.606 0.933-2.372 1.458l-2.324 1.528c-0.782 0.497-1.506 1.078-2.261 1.612-0.741 0.554-1.51 1.07-2.226 1.654l-2.157 1.737c-0.729 0.565-1.417 1.178-2.103 1.792l-2.063 1.83-1.971 1.919c-0.656 0.639-1.319 1.271-1.93 1.951-5.031 5.298-9.451 11.078-13.066 17.194-3.5449 5.9998-6.4499 12.355-8.667 18.962-4.375 12.92-5.63 26.023-5.046 37.858-0.126-4.872-0.147-11.859 0.753-18.755zm141.13 90.446c3.0388-1.9642 5.965-4.0972 8.765-6.389-2.84 2.339-5.758 4.499-8.765 6.389zm40.217-54.282c-0.299 0.901-0.552 1.791-0.882 2.641l-0.957 2.523-0.466 1.248-0.513 1.231c-0.34266 0.82951-0.67502 1.6632-0.997 2.501-1.8516 4.6117-4.0537 9.0747-6.587 13.35-2.521 4.275-5.443 8.281-8.565 12.04-1.542 1.899-3.222 3.66-4.874 5.421l-2.581 2.523c-0.847 0.848-1.774 1.604-2.652 2.404-0.736 0.64-1.478 1.266-2.225 1.882 2.7744-2.2789 5.411-4.7205 7.896-7.312-3.5953 3.7266-7.5062 7.1353-11.689 10.188-1.036 0.722-2.037 1.496-3.113 2.176l-3.247 2.069-3.43 1.949c-1.167 0.648-2.399 1.224-3.634 1.855 0.88447-0.52119 1.7797-1.024 2.685-1.508 1.021-0.567 2.092-1.237 3.138-1.85 1.054-0.601 2.012-1.261 2.808-1.813s1.42-1.01 1.745-1.306c-0.464 0.315-0.936 0.617-1.406 0.924 0.50564-0.33339 1.008-0.67174 1.507-1.015-0.021 0.023-0.065 0.059-0.101 0.091 10.932-7.466 20.245-17.277 27.223-28.462 7.009-11.175 11.57-23.781 13.46-36.601-0.41 5.142-1.352 9.248-2.543 12.851zm-6.654-65.352zm-8.448-12.698c3.0094 4.5453 5.6106 9.348 7.773 14.352 0.25 0.549 0.486 1.106 0.719 1.664 4.963 12.154 7.221 25.192 6.89 38.036 0.084-4.25-0.198-8.498-0.669-12.71-0.533-4.854-1.518-9.65-2.824-14.341-2.562-9.407-6.723-18.323-12.005-26.451 0.485 0.67 0.996 1.396 1.525 2.166 0.56641 0.79691 1.0969 1.6187 1.59 2.463l-0.638-1.109-0.689-1.079-1.378-2.156c-0.938-1.424-1.955-2.796-2.934-4.192-1.062-1.334-2.069-2.712-3.174-4.011-0.836-0.953-1.637-1.938-2.485-2.879 2.992 3.155 5.801 6.54 8.299 10.247zm-70.248-40.444c1.467 0.078 2.937 0.221 4.407 0.331 1.204 0.101 2.402 0.279 3.588 0.413 0.356 0.015 0.732 0.039 1.204 0.092 0.471 0.065 1.034 0.186 1.769 0.354 5.469 0.912 10.459 2.283 14.001 3.699 6.798 2.573 13.123 5.774 18.86 9.471 5.739 3.69 10.889 7.887 15.246 12.471 2.008 2.179 1.422 1.704 0.315 0.646l1.662 1.764c-0.736-0.734-1.459-1.478-2.206-2.196l-2.301-2.09c0.56 0.49 1.918 1.663 2.845 2.522-7.389-7.539-16.026-13.799-25.375-18.404-9.356-4.603-19.431-7.446-29.502-8.581 1.618 0.18 2.412 0.22 3.168 0.24-1.085-0.127-2.173-0.301-3.274-0.401-1.479-0.097-2.955-0.229-4.423-0.301l-4.36-0.103c1.444-1e-3 2.907 0.039 4.376 0.073z" fill="#fff" stroke-linecap="round" vector-effect="non-scaling-stroke"/>
</g>
<g transform="matrix(2.5 0 0 2.5 277.13 403.26)">
<path transform="translate(-103.07 -156.53)" d="m115.94 184.69 0.426-0.125c-0.446 0.12-0.885 0.252-1.334 0.366 0.304-0.076 0.609-0.15 0.908-0.241zm44.482-38.539c4.235-5.587 7.977-12.263 10.366-18.014l-0.029 6e-3c-6.061 14.322-15.892 26.66-28.16 35.744 2.1782-1.5139 4.3182-3.0821 6.418-4.703 2.698-2.82 7.213-7.406 11.405-13.033zm-125.07 16.695c7.172 6.412 15.821 11.992 25.448 15.751 3.754 1.413 7.585 2.651 11.503 3.523 1.944 0.502 3.929 0.812 5.899 1.181 0.987 0.175 1.987 0.272 2.979 0.412 0.994 0.129 1.986 0.275 2.987 0.333-4.519-0.501-9.005-1.251-13.372-2.44-4.364-1.185-8.642-2.65-12.769-4.449-4.1056-1.8278-8.0797-3.9375-11.894-6.314-3.786-2.408-7.376-5.097-10.781-7.997zm88.527 11.431-2.219 0.871-2.266 0.756c-1.5 0.54-3.047 0.944-4.59 1.373 1.551-0.39 3.111-0.754 4.624-1.254l2.283-0.698 2.23-0.815c-0.086-0.044-0.594 0.055-0.062-0.233zm-26.194 5.688c-1.16 0.099-2.326 0.09-3.494 0.102-1.168 0.014-2.338 0.039-3.509-0.038l1.576 0.148c0.482 0.031 0.916 0.068 1.295 0.113 1.381-0.118 2.752-0.151 4.132-0.325zm-46.242-10.756c1.341 0.787 2.765 1.48 4.178 2.244 0.354 0.194 0.996 0.415 1.801 0.709-1.721-0.739-3.37-1.655-5.046-2.505-0.83-0.441-1.629-0.935-2.443-1.395-0.812-0.464-1.621-0.927-2.389-1.445l0.937 0.626 0.977 0.584 1.985 1.182z" fill="#fff" stroke-linecap="round" vector-effect="non-scaling-stroke"/>
</g>
<g transform="matrix(6.53 0 0 6.59 250 183.5)">
<path transform="translate(0)" d="m1.063-11.5-0.031 0.156-5 22-0.188 0.844h3.094l0.031-0.156 5-22 0.188-0.844zm-7.063 3-0.406 0.313-9 7-0.594 0.469v1.438l0.594 0.469 9 7 0.406 0.313v-3.781l-6.063-4.719 6.063-4.719v-3.781zm12 0v3.781l6.063 4.719-6.063 4.719v3.781l0.406-0.313 9-7 0.594-0.469v-1.438l-0.594-0.469-9-7-0.406-0.313z" fill="#fff" stroke-linecap="round" vector-effect="non-scaling-stroke"/>
</g>
<g transform="matrix(1.54 0 0 1.54 250 311.72)">
<path transform="translate(0)" d="m-99.054-0.15385c1.1467 0.72 2.02 1.6 2.62 2.64 0.6 1.04 0.9 2.2 0.9 3.48 0 3.0133-1.1467 5.32-3.44 6.92-1.5467 1.12-3.64 1.8267-6.28 2.12h-0.16c-0.37333 0-0.68-0.12-0.92-0.36-0.32-0.29333-0.48-0.64-0.48-1.04v-2.88c0-0.34667 0.12-0.65333 0.36-0.92 0.24-0.26667 0.53333-0.42667 0.88-0.48 1.2533-0.13333 2.2267-0.42667 2.92-0.88 0.53333-0.32 0.89333-0.73333 1.08-1.24 0.10667-0.29333 0.16-0.66667 0.16-1.12 0-0.29333-0.05333-0.54667-0.16-0.76-0.10667-0.21333-0.29333-0.41333-0.56-0.6-0.77333-0.53333-1.7733-0.98667-3-1.36l-0.64-0.2c-1.3333-0.37333-2.56-0.68-3.68-0.92-0.24-0.05333-0.62667-0.14667-1.16-0.28l-0.44-0.12c-0.96-0.24-1.9733-0.57333-3.04-1-1.5733-0.66667-2.8667-1.5067-3.88-2.52-1.1733-1.1733-1.76-2.72-1.76-4.64 0-2.64 1.0133-4.7867 3.04-6.44 1.3867-1.1733 3.3333-1.92 5.84-2.24 0.42667-0.05333 0.79333 0.06667 1.1 0.36s0.46 0.64 0.46 1.04v2.88c0 0.34667-0.10667 0.65333-0.32 0.92-0.21333 0.26667-0.48667 0.42-0.82 0.46-0.33333 0.04-0.67333 0.11333-1.02 0.22-0.77333 0.29333-1.32 0.58-1.64 0.86-0.32 0.28-0.54667 0.56667-0.68 0.86-0.13333 0.45333-0.2 0.88-0.2 1.28 0 0.21333 0.12 0.44 0.36 0.68 0.37333 0.37333 0.92 0.70667 1.64 1 0.32 0.13333 0.88 0.33333 1.68 0.6l5 1.24 0.24 0.08c1.2533 0.34667 2.16 0.61333 2.72 0.8 1.2533 0.42667 2.3467 0.94667 3.28 1.56zm-6.68-9.04c-0.32-0.08-0.58-0.24667-0.78-0.5-0.2-0.25333-0.3-0.55333-0.3-0.9v-2.92c0-0.42667 0.17333-0.78667 0.52-1.08 0.13333-0.13333 0.30667-0.22 0.52-0.26 0.21333-0.04 0.41333-0.04667 0.6-0.02 2.3467 0.37333 4.2533 1.1733 5.72 2.4 2 1.6533 3.0667 3.76 3.2 6.32 0.02667 0.37333-0.1 0.71333-0.38 1.02-0.28 0.30667-0.62 0.46-1.02 0.46h-3.12c-0.34667 0-0.65333-0.12-0.92-0.36-0.26667-0.24-0.41333-0.53333-0.44-0.88-0.10667-0.69333-0.33333-1.2667-0.68-1.72-0.56-0.66667-1.4267-1.1733-2.6-1.52-0.08 0-0.13333-0.01333-0.16-0.04zm-4.68 18.36c0.32 0.05333 0.58667 0.21333 0.8 0.48s0.32 0.56 0.32 0.88v2.96c0 0.42667-0.16 0.78667-0.48 1.08-0.26667 0.21333-0.57333 0.32-0.92 0.32h-0.2c-2.48-0.37333-4.52-1.1867-6.12-2.44-2.08-1.6533-3.2533-3.96-3.52-6.92-0.05333-0.42667 0.06667-0.79333 0.36-1.1 0.29333-0.30667 0.64-0.46 1.04-0.46h3.16c0.37333 0 0.69333 0.12667 0.96 0.38 0.26667 0.25333 0.41333 0.56667 0.44 0.94 0.08 1.3333 0.73333 2.36 1.96 3.08 0.56 0.32 1.2933 0.58667 2.2 0.8zm34.24-23.32 11.2 26.44c0.13333 0.21333 0.2 0.44 0.2 0.68 0 0.37333-0.13333 0.7-0.4 0.98-0.26667 0.28-0.6 0.42-1 0.42h-3.32c-0.29333 0-0.55333-0.07333-0.78-0.22s-0.39333-0.35333-0.5-0.62l-2.92-6.88h-11.32l-2.88 6.88c-0.10667 0.26667-0.27333 0.47333-0.5 0.62-0.22667 0.14667-0.48667 0.22-0.78 0.22h-3.32c-0.24 0-0.46667-0.06-0.68-0.18-0.21333-0.12-0.38-0.27333-0.5-0.46-0.12-0.18667-0.19333-0.39333-0.22-0.62-0.02667-0.22667 0.01333-0.44667 0.12-0.66l11.28-26.6c0.10667-0.26667 0.27333-0.47333 0.5-0.62 0.22667-0.14667 0.48667-0.22 0.78-0.22h3.76c0.29333 0 0.55333 0.07333 0.78 0.22s0.39333 0.35333 0.5 0.62zm-3.16 7.28-3.32 7.96h6.64zm45.24-8.12c0.37333 0 0.7 0.14 0.98 0.42 0.28 0.28 0.42 0.60667 0.42 0.98v26.56c0 0.37333-0.14 0.7-0.42 0.98-0.28 0.28-0.60667 0.42-0.98 0.42h-3c-0.37333 0-0.7-0.14-0.98-0.42-0.28-0.28-0.42-0.60667-0.42-0.98v-17.92l-7.36 9.44c-0.26667 0.34667-0.62667 0.52-1.08 0.52v0c-0.45333 0-0.81333-0.17333-1.08-0.52l-7.52-9.48v17.96c0 0.37333-0.14 0.7-0.42 0.98-0.28 0.28-0.60667 0.42-0.98 0.42h-3c-0.37333 0-0.7-0.14-0.98-0.42-0.28-0.28-0.42-0.60667-0.42-0.98v-26.56c0-0.37333 0.14-0.7 0.42-0.98 0.28-0.28 0.60667-0.42 0.98-0.42h3.48c0.45333 0 0.82667 0.18667 1.12 0.56l8.4 11.12 8.24-11.12c0.10667-0.18667 0.26667-0.32667 0.48-0.42s0.42667-0.14 0.64-0.14zm29.76 0c3.1733 0 5.7333 0.91333 7.68 2.74 1.9467 1.8267 2.92 4.26 2.92 7.3s-0.96 5.4667-2.88 7.28c-1.92 1.8133-4.4933 2.72-7.72 2.72h-7.64v8.16c0 0.37333-0.14 0.7-0.42 0.98-0.28 0.28-0.60667 0.42-0.98 0.42h-3.04c-0.37333 0-0.7-0.14-0.98-0.42s-0.42-0.60667-0.42-0.98v-12.4c0-0.37333 0.14-0.7 0.42-0.98 0.28-0.28 0.60667-0.42 0.98-0.42h11.84c1.7867 0 3.0667-0.38667 3.84-1.16 0.77333-0.69333 1.16-1.7467 1.16-3.16s-0.4-2.5-1.2-3.26c-0.8-0.76-2.0667-1.14-3.8-1.14h-11.84c-0.37333 0-0.7-0.14-0.98-0.42s-0.42-0.60667-0.42-0.98v-2.88c0-0.37333 0.14-0.7 0.42-0.98 0.28-0.28 0.60667-0.42 0.98-0.42zm27.88 0c4.3733 0 7.96 1.4667 10.76 4.4 2.7467 2.88 4.12 6.4133 4.12 10.6 0 4.1867-1.3733 7.72-4.12 10.6-2.8 2.9333-6.3867 4.4-10.76 4.4-4.3733 0-7.96-1.4667-10.76-4.4-2.7467-2.88-4.12-6.4133-4.12-10.6 0-4.1867 1.3733-7.72 4.12-10.6 2.8-2.9333 6.3867-4.4 10.76-4.4zm0 24.28c2.7467 0 4.96-0.88 6.64-2.64 1.6267-1.7067 2.44-3.9133 2.44-6.62 0-2.7067-0.82667-4.9333-2.48-6.68-1.6533-1.7467-3.8533-2.62-6.6-2.62-2.7467 0-4.9467 0.87333-6.6 2.62-1.6533 1.7467-2.48 3.9733-2.48 6.68 0 2.7067 0.81333 4.9133 2.44 6.62 1.68 1.76 3.8933 2.64 6.64 2.64zm34.4-23.44 11.2 26.44c0.13333 0.21333 0.2 0.44 0.2 0.68 0 0.37333-0.13333 0.7-0.4 0.98-0.26667 0.28-0.6 0.42-1 0.42h-3.32c-0.29333 0-0.55333-0.07333-0.78-0.22s-0.39333-0.35333-0.5-0.62l-2.92-6.88h-11.32l-2.88 6.88c-0.10667 0.26667-0.27333 0.47333-0.5 0.62-0.22667 0.14667-0.48667 0.22-0.78 0.22h-3.32c-0.24 0-0.46667-0.06-0.68-0.18-0.21333-0.12-0.38-0.27333-0.5-0.46-0.12-0.18667-0.19333-0.39333-0.22-0.62-0.02667-0.22667 0.01333-0.44667 0.12-0.66l11.28-26.6c0.10667-0.26667 0.27333-0.47333 0.5-0.62 0.22667-0.14667 0.48667-0.22 0.78-0.22h3.76c0.29333 0 0.55333 0.07333 0.78 0.22 0.22667 0.14667 0.39333 0.35333 0.5 0.62zm-3.16 7.28-3.32 7.96h6.64zm38.28-8.12c0.37333 0 0.69333 0.14 0.96 0.42 0.26667 0.28 0.4 0.60667 0.4 0.98v2.88c0 0.37333-0.13333 0.7-0.4 0.98-0.26667 0.28-0.58667 0.42-0.96 0.42h-7.88v22.28c0 0.37333-0.14 0.7-0.42 0.98-0.28 0.28-0.60667 0.42-0.98 0.42h-3c-0.4 0-0.73333-0.14-1-0.42-0.26667-0.28-0.4-0.60667-0.4-0.98v-22.28h-7.88c-0.37333 0-0.7-0.14-0.98-0.42-0.28-0.28-0.42-0.60667-0.42-0.98v-2.88c0-0.37333 0.14-0.7 0.42-0.98 0.28-0.28 0.60667-0.42 0.98-0.42zm26.08 0c0.4 0 0.73333 0.14 1 0.42 0.26667 0.28 0.4 0.60667 0.4 0.98v2.88c0 0.37333-0.13333 0.7-0.4 0.98-0.26667 0.28-0.6 0.42-1 0.42h-15.12v6.12h13.36c0.4 0 0.73333 0.14 1 0.42 0.26667 0.28 0.4 0.60667 0.4 0.98v2.92c0 0.37333-0.13333 0.7-0.4 0.98-0.26667 0.28-0.6 0.42-1 0.42h-13.36v6.16h15.12c0.4 0 0.73333 0.14 1 0.42 0.26667 0.28 0.4 0.60667 0.4 0.98v2.88c0 0.37333-0.13333 0.7-0.4 0.98-0.26667 0.28-0.6 0.42-1 0.42h-19.52c-0.37333 0-0.7-0.14-0.98-0.42-0.28-0.28-0.42-0.60667-0.42-0.98v-26.56c0-0.37333 0.14-0.7 0.42-0.98 0.28-0.28 0.60667-0.42 0.98-0.42z" fill="#fff" stroke-linecap="round" vector-effect="non-scaling-stroke"/>
</g>
</svg>
